Just the interview.                                                                                    Enjoy and please share.                                                                *********************************                                     The_Talk_Ally_Walker_720p.hdtv.x264-20110627_TTL.mkv
Format                           : Matroska
File size                        : 126 MiB
Duration                         : 5mn 7s
Overall bit rate                 : 3 441 Kbps
Movie name                       : The_Talk_Ally Walker_720p_20110627_TTL.mpg
Writing application              : SUPER(C)   
Writing library                  : SUPER(C)   

Video
ID                               : 1
Format                           : AVC
Format/Info                      : Advanced Video Codec
Format profile                   : Baseline@L1.3
Format settings, CABAC           : No
Format settings, ReFrames        : 1 frame
Muxing mode                      : Container profile=Unknown@1.3
Codec ID                         : V_MPEG4/ISO/AVC
Duration                         : 5mn 7s
Bit rate                         : 3 117 Kbps
Width                            : 1 280 pixels
Height                           : 720 pixels
Display aspect ratio             : 16:9
Frame rate                       : 29.970 fps
Color space                      : YUV
Chroma subsampling               : 4:2:0
Bit depth                        : 8 bits
Scan type                        : Progressive
Bits/(Pixel*Frame)               : 0.113
Stream size                      : 114 MiB (91%)

Audio
ID                               : 2
Format                           : AC-3
Format/Info                      : Audio Coding 3
Mode extension                   : CM (complete main)
Codec ID                         : A_AC3
Duration                         : 5mn 7s
Bit rate mode                    : Constant
Bit rate                         : 256 Kbps
Channel(s)                       : 2 channels
Channel positions                : Front: L R
Sampling rate                    : 48.0 KHz
Bit depth                        : 16 bits
Stream size                      : 9.38 MiB (7%)

